<svg width="100" height="100" xmlns="http://www.w3.org/2000/svg">
 <!-- Created with Method Draw - http://github.com/duopixel/Method-Draw/ -->
 <g>
  <title>background</title>
  <rect fill="#fff" id="canvas_background" height="102" width="102" y="-1" x="-1"/>
  <g display="none" overflow="visible" y="0" x="0" height="100%" width="100%" id="canvasGrid">
   <rect fill="url(#gridpattern)" stroke-width="0" y="0" x="0" height="100%" width="100%"/>
  </g>
 </g>
 <g>
  <title>Layer 1</title>
  <rect stroke="#000" id="svg_1" height="60" width="60" y="20" x="20" fill="#007f7f"/>
  <path stroke="#000" id="svg_3" d="m20.636363,49.636354l0,0c0,-15.81542 13.004084,-28.636354 29.045432,-28.636354l0,0c7.703324,0 15.091147,3.017034 20.538218,8.387392c5.447077,5.37036 8.507214,12.654126 8.507214,20.248962l0,0c0,15.815418 -13.004084,28.636354 -29.045432,28.636354l0,0c-16.041346,0 -29.045432,-12.820936 -29.045432,-28.636354zm14.522716,0l0,0c0,7.907708 6.502046,14.318177 14.522716,14.318177c8.020676,0 14.522716,-6.410469 14.522716,-14.318177c0,-7.907708 -6.502044,-14.318177 -14.522716,-14.318177l0,0c-8.02067,0 -14.522716,6.410471 -14.522716,14.318177z" stroke-opacity="null" fill="#27a5a5"/>
  <rect stroke="#000" id="svg_4" height="51.636409" width="20" y="0" x="40" stroke-opacity="null" fill="#cccccc"/>
 </g>
</svg>